<?xml version="1.0" standalone="no"?>
<!DOCTYPE svg PUBLIC "-//W3C//DTD SVG 20010904//EN"
 "http://www.w3.org/TR/2001/REC-SVG-20010904/DTD/svg10.dtd">
<svg version="1.0" xmlns="http://www.w3.org/2000/svg"
 width="187.000000pt" height="97.000000pt" viewBox="0 0 187.000000 97.000000"
 preserveAspectRatio="xMidYMid meet">

<g transform="translate(0.000000,97.000000) scale(0.100000,-0.100000)"
fill="#000000" stroke="none">
<path d="M458 678 c-10 -28 5 -65 32 -80 31 -18 49 -63 42 -109 -9 -62 -88
-101 -148 -73 -18 9 -39 26 -47 38 -12 18 -22 21 -51 18 l-36 -4 0 -95 0 -94
33 3 c30 3 32 6 35 45 l3 43 30 -16 c65 -33 159 -14 208 41 84 96 48 239 -72
284 -18 7 -27 7 -29 -1z"/>
<path d="M355 668 c-11 -6 -34 -24 -52 -41 l-32 -30 -20 24 c-19 23 -20 23
-39 6 -20 -19 -20 -19 -1 -52 28 -47 42 -56 76 -49 22 4 35 16 47 40 9 19 27
40 41 46 18 8 25 19 25 40 0 30 -12 34 -45 16z"/>
<path d="M660 500 l0 -111 68 3 c59 3 67 5 67 23 0 16 -8 21 -42 23 l-43 3 0
85 c0 83 0 84 -25 84 l-25 0 0 -110z"/>
<path d="M885 598 c-2 -7 -18 -51 -35 -97 -16 -47 -30 -91 -30 -98 0 -18 47
-16 54 2 3 9 18 15 36 15 18 0 33 -6 36 -15 4 -8 17 -15 30 -15 31 0 30 13 -9
125 -26 74 -36 91 -55 93 -12 2 -24 -3 -27 -10z m33 -127 c-15 -5 -21 7 -13
26 7 17 8 17 15 -2 4 -11 3 -22 -2 -24z"/>
<path d="M1035 588 c-3 -13 -4 -61 -3 -108 3 -84 3 -85 31 -88 26 -3 27 -2 27
50 l0 53 33 -50 c24 -38 38 -50 57 -50 24 0 25 2 28 85 4 109 -2 132 -31 128
-19 -3 -22 -10 -25 -52 l-3 -49 -35 52 c-38 56 -70 67 -79 29z"/>
<path d="M1250 500 l0 -110 25 0 25 0 0 110 0 110 -25 0 -25 0 0 -110z"/>
<path d="M1345 588 c-3 -13 -5 -61 -3 -108 3 -83 4 -85 28 -85 22 0 25 5 28
37 3 35 5 37 40 40 30 2 38 8 40 26 3 20 -1 22 -37 22 -34 0 -41 3 -41 20 0
17 7 20 44 20 48 0 60 8 50 34 -5 13 -21 16 -75 16 -63 0 -69 -2 -74 -22z"/>
<path d="M1500 605 c0 -3 12 -29 27 -58 15 -29 29 -74 33 -102 4 -45 7 -50 30
-50 23 0 26 5 30 50 4 28 18 73 33 102 15 29 27 55 27 58 0 3 -11 5 -25 5 -18
0 -31 -9 -43 -30 -9 -16 -19 -30 -22 -30 -3 0 -13 14 -22 30 -12 21 -25 30
-43 30 -14 0 -25 -2 -25 -5z"/>
</g>
</svg>
