<?xml version="1.0" encoding="utf-8"?>
<!-- Generator: Adobe Illustrator 24.2.3, SVG Export Plug-In . SVG Version: 6.00 Build 0)  -->
<svg version="1.1" id="Calque_1" xmlns="http://www.w3.org/2000/svg" xmlns:xlink="http://www.w3.org/1999/xlink" x="0px" y="0px"
	 viewBox="0 0 1106.67 429.33" style="enable-background:new 0 0 1106.67 429.33;" xml:space="preserve">
<style type="text/css">
	.st0{fill:#1889E7;}
</style>
<g>
	<path class="st0" d="M200.13,78.3c0,0-54.17,4.41-86.92,59.21l-24.56-32.75L54,131.84l42.2,58.93l48.5-6.02
		c0,0,6.93-54.8,55.43-59.84V78.3z"/>
	<path d="M234.77,78.3c0,0,98.26,16.38,98.26,121.56c0,0-1.26,97.63-108.34,110.86c0,0-44.09,6.93-81.88-25.19v58.58l-44.09,6.93
		V226.32c0,0,35.27-4.41,46.61-8.19c0,0,15.89,42.83,61.17,49.76c0,0,74.25,6.3,81.18-66.14c0,0,10.71-53.54-51.65-78.1L234.77,78.3
		z"/>
	<g>
		<path d="M368.26,144.97c0-8.06,4.03-12.1,12.1-12.1h12.1c8.06,0,12.1,4.03,12.1,12.1V244h46.13c8.06,0,12.1,4.03,12.1,12.1v8.2
			c0,8.07-4.03,12.1-12.1,12.1h-70.33c-8.07,0-12.1-4.03-12.1-12.1V144.97z"/>
		<path d="M483.08,276.4c-8.07,0-10.73-3.83-8-11.48l42.65-120.56c2.73-7.65,8.13-11.48,16.2-11.48h6.15
			c8.06,0,13.46,3.83,16.2,11.48l42.65,120.56c2.73,7.66,0.07,11.48-8,11.48h-15.99c-6.56,0-10.87-3.08-12.92-9.23l-3.69-10.87
			h-42.65l-3.69,10.87c-2.05,6.15-6.36,9.23-12.92,9.23H483.08z M525.11,226.58h23.78L537,186.8L525.11,226.58z"/>
		<path d="M620.45,144.97c0-8.06,4.03-12.1,12.1-12.1h10.66c6.56,0,11.62,2.74,15.17,8.2l39.98,62.54v-58.64
			c0-8.06,4.03-12.1,12.1-12.1h12.1c8.06,0,12.1,4.03,12.1,12.1V264.3c0,8.07-4.03,12.1-12.1,12.1H711.9
			c-6.43,0-11.48-2.8-15.17-8.41l-39.98-63.36v59.67c0,8.07-4.03,12.1-12.1,12.1h-12.1c-8.07,0-12.1-4.03-12.1-12.1V144.97z"/>
		<path d="M762.54,264.3V144.97c0-8.06,4.03-12.1,12.1-12.1h12.1c8.06,0,12.1,4.03,12.1,12.1V264.3c0,8.07-4.03,12.1-12.1,12.1
			h-12.1C766.57,276.4,762.54,272.37,762.54,264.3z"/>
		<path d="M826.52,144.97c0-8.06,4.03-12.1,12.1-12.1h76.07c8.06,0,12.1,4.03,12.1,12.1v8.2c0,8.07-4.03,12.1-12.1,12.1h-51.88
			v23.99h41.62c8.06,0,12.1,4.03,12.1,12.1v8.2c0,8.07-4.03,12.1-12.1,12.1h-41.62v42.65c0,8.07-4.03,12.1-12.1,12.1h-12.1
			c-8.07,0-12.1-4.03-12.1-12.1V144.97z"/>
		<path d="M932.11,143.54c-3.83-7.11-1.64-10.66,6.56-10.66h17.02c6.42,0,11.21,2.94,14.35,8.82l19.48,37.11l19.68-37.32
			c3.14-5.74,7.93-8.61,14.35-8.61h17.02c8.2,0,10.39,3.56,6.56,10.66l-39.37,74.63v46.13c0,8.07-4.03,12.1-12.1,12.1h-12.1
			c-8.07,0-12.1-4.03-12.1-12.1v-46.13L932.11,143.54z"/>
	</g>
</g>
</svg>
